<svg width="12" height="16" viewBox="0 0 12 16" fill="none" xmlns="http://www.w3.org/2000/svg">
<path d="M11.2 12.8C11.2 13.4365 10.9471 14.047 10.4971 14.4971C10.047 14.9471 9.43652 15.2 8.8 15.2H3.2C2.56348 15.2 1.95303 14.9471 1.50294 14.4971C1.05286 14.047 0.8 13.4365 0.8 12.8V3.2H0V0.8H3.6L4.4 0H7.6L8.4 0.8H12V3.2H11.2V12.8ZM1.6 3.2V12.8C1.6 13.2243 1.76857 13.6313 2.06863 13.9314C2.36869 14.2314 2.77565 14.4 3.2 14.4H8.8C9.22435 14.4 9.63131 14.2314 9.93137 13.9314C10.2314 13.6313 10.4 13.2243 10.4 12.8V3.2H1.6ZM11.2 2.4V1.6H8L7.2 0.8H4.8L4 1.6H0.8V2.4H11.2ZM3.2 4.8H4V12.8H3.2V4.8ZM8 4.8H8.8V12.8H8V4.8Z" fill="#28A5D8"/>
</svg>
