<svg width="500" height="128" viewBox="0 0 500 128" fill="none" xmlns="http://www.w3.org/2000/svg">
<rect width="500" height="128" rx="10" fill="#28A5D8"/>
<path d="M8.5 14C8.5 9.85786 11.8579 6.5 16 6.5H485C489.142 6.5 492.5 9.85786 492.5 14V112C492.5 116.142 489.142 119.5 485 119.5H16C11.8579 119.5 8.5 116.142 8.5 112V14Z" stroke="white" stroke-width="5"/>
<path d="M23.836 37.2C25.236 37.2 26.3047 37.4567 27.042 37.97C27.7887 38.4833 28.162 39.2673 28.162 40.322C28.162 41.638 27.5133 42.5293 26.216 42.996C26.3933 43.2107 26.594 43.472 26.818 43.78C27.042 44.088 27.2707 44.424 27.504 44.788C27.7373 45.1427 27.9613 45.5113 28.176 45.894C28.3907 46.2673 28.582 46.636 28.75 47H26.776C26.5987 46.664 26.4073 46.328 26.202 45.992C25.9967 45.6467 25.7867 45.3153 25.572 44.998C25.3667 44.6713 25.1613 44.368 24.956 44.088C24.7507 43.7987 24.5593 43.542 24.382 43.318C24.2513 43.3273 24.1393 43.332 24.046 43.332C23.9527 43.332 23.864 43.332 23.78 43.332H22.926V47H21.162V37.438C21.5913 37.3447 22.0487 37.284 22.534 37.256C23.0193 37.2187 23.4533 37.2 23.836 37.2ZM23.962 38.726C23.5887 38.726 23.2433 38.74 22.926 38.768V41.904H23.696C24.1253 41.904 24.5033 41.8807 24.83 41.834C25.1567 41.7873 25.4273 41.7033 25.642 41.582C25.866 41.4607 26.034 41.2973 26.146 41.092C26.258 40.8867 26.314 40.6253 26.314 40.308C26.314 40.0093 26.258 39.7573 26.146 39.552C26.034 39.3467 25.8707 39.1833 25.656 39.062C25.4507 38.9407 25.2033 38.8567 24.914 38.81C24.6247 38.754 24.3073 38.726 23.962 38.726Z" fill="white"/>
<path d="M21.162 63V53.298H27.392V54.796H22.926V57.19H26.902V58.66H22.926V61.502H27.728V63H21.162Z" fill="white"/>
<path d="M25.698 69.628C24.6993 69.628 23.934 69.9407 23.402 70.566C22.8793 71.182 22.618 72.0407 22.618 73.142C22.618 73.6647 22.6787 74.1453 22.8 74.584C22.9307 75.0133 23.1173 75.382 23.36 75.69C23.612 75.998 23.92 76.2407 24.284 76.418C24.6573 76.586 25.0913 76.67 25.586 76.67C25.894 76.67 26.16 76.6607 26.384 76.642C26.608 76.614 26.7853 76.5813 26.916 76.544V73.058H28.68V77.72C28.4373 77.8133 28.0267 77.916 27.448 78.028C26.8693 78.14 26.202 78.196 25.446 78.196C24.746 78.196 24.1067 78.084 23.528 77.86C22.9493 77.636 22.4547 77.3093 22.044 76.88C21.6427 76.4507 21.33 75.9233 21.106 75.298C20.882 74.6727 20.77 73.954 20.77 73.142C20.77 72.33 20.8913 71.6113 21.134 70.986C21.386 70.3607 21.7267 69.8333 22.156 69.404C22.5853 68.9653 23.0893 68.634 23.668 68.41C24.2467 68.186 24.8627 68.074 25.516 68.074C25.964 68.074 26.3607 68.1067 26.706 68.172C27.0607 68.228 27.364 68.2933 27.616 68.368C27.868 68.4427 28.0733 68.522 28.232 68.606C28.4 68.69 28.5167 68.7507 28.582 68.788L28.05 70.23C27.77 70.062 27.42 69.922 27 69.81C26.5893 69.6887 26.1553 69.628 25.698 69.628Z" fill="white"/>
<path d="M22.604 87.142C22.604 87.674 22.6693 88.1593 22.8 88.598C22.9307 89.0273 23.1173 89.396 23.36 89.704C23.612 90.0027 23.9153 90.236 24.27 90.404C24.6247 90.572 25.026 90.656 25.474 90.656C25.9127 90.656 26.3093 90.572 26.664 90.404C27.0187 90.236 27.3173 90.0027 27.56 89.704C27.812 89.396 28.0033 89.0273 28.134 88.598C28.2647 88.1593 28.33 87.674 28.33 87.142C28.33 86.61 28.2647 86.1293 28.134 85.7C28.0033 85.2613 27.812 84.8927 27.56 84.594C27.3173 84.286 27.0187 84.048 26.664 83.88C26.3093 83.712 25.9127 83.628 25.474 83.628C25.026 83.628 24.6247 83.712 24.27 83.88C23.9153 84.048 23.612 84.286 23.36 84.594C23.1173 84.902 22.9307 85.2707 22.8 85.7C22.6693 86.1293 22.604 86.61 22.604 87.142ZM30.178 87.142C30.178 87.9727 30.052 88.7053 29.8 89.34C29.5573 89.9747 29.2213 90.5067 28.792 90.936C28.372 91.356 27.8773 91.6733 27.308 91.888C26.7387 92.1027 26.132 92.21 25.488 92.21C24.844 92.21 24.2327 92.1027 23.654 91.888C23.0847 91.6733 22.5853 91.356 22.156 90.936C21.736 90.5067 21.4 89.9747 21.148 89.34C20.896 88.7053 20.77 87.9727 20.77 87.142C20.77 86.3113 20.896 85.5833 21.148 84.958C21.4 84.3233 21.7407 83.7913 22.17 83.362C22.6087 82.9327 23.1127 82.6107 23.682 82.396C24.2513 82.1813 24.8533 82.074 25.488 82.074C26.1227 82.074 26.7247 82.1813 27.294 82.396C27.8633 82.6107 28.358 82.9327 28.778 83.362C29.2073 83.7913 29.548 84.3233 29.8 84.958C30.052 85.5833 30.178 86.3113 30.178 87.142Z" fill="white"/>
<path d="M26 26.785C29.3137 26.785 32 24.1469 32 20.8925C32 17.6382 29.3137 15 26 15C22.6863 15 20 17.6382 20 20.8925C20 24.1469 22.6863 26.785 26 26.785Z" fill="black"/>
<path d="M26 112C29.3137 112 32 109.314 32 106C32 102.686 29.3137 100 26 100C22.6863 100 20 102.686 20 106C20 109.314 22.6863 112 26 112Z" fill="black"/>
<path d="M475 27C478.314 27 481 24.3137 481 21C481 17.6863 478.314 15 475 15C471.686 15 469 17.6863 469 21C469 24.3137 471.686 27 475 27Z" fill="black"/>
<path d="M475 112C478.314 112 481 109.314 481 106C481 102.686 478.314 100 475 100C471.686 100 469 102.686 469 106C469 109.314 471.686 112 475 112Z" fill="black"/>
<path d="M129 27C132.314 27 135 24.3137 135 21C135 17.6863 132.314 15 129 15C125.686 15 123 17.6863 123 21C123 24.3137 125.686 27 129 27Z" fill="black"/>
<path d="M356 27C359.314 27 362 24.3137 362 21C362 17.6863 359.314 15 356 15C352.686 15 350 17.6863 350 21C350 24.3137 352.686 27 356 27Z" fill="black"/>
<path d="M145 27C148.314 27 151 24.3137 151 21C151 17.6863 148.314 15 145 15C141.686 15 139 17.6863 139 21C139 24.3137 141.686 27 145 27Z" fill="black"/>
<path d="M372 27C375.314 27 378 24.3137 378 21C378 17.6863 375.314 15 372 15C368.686 15 366 17.6863 366 21C366 24.3137 368.686 27 372 27Z" fill="black"/>
</svg>
