<svg width="46" height="36" viewBox="0 0 46 36" fill="none" xmlns="http://www.w3.org/2000/svg">
<path d="M16.2256 27.2395H29.7781C30.004 27.2395 30.1888 27.0662 30.1888 26.8544V22.8111C30.1888 22.5993 30.004 22.426 29.7781 22.426H27.7247C27.4988 22.426 27.314 22.5993 27.314 22.8111V24.5439H18.6897V22.8111C18.6897 22.5993 18.5049 22.426 18.279 22.426H16.2256C15.9997 22.426 15.8149 22.5993 15.8149 22.8111V26.8544C15.8149 27.0662 15.9997 27.2395 16.2256 27.2395ZM33.6796 21.3189C33.6796 21.8295 33.8959 22.3193 34.281 22.6804C34.6661 23.0414 35.1884 23.2443 35.733 23.2443C36.2776 23.2443 36.7999 23.0414 37.185 22.6804C37.57 22.3193 37.7864 21.8295 37.7864 21.3189C37.7864 20.8082 37.57 20.3185 37.185 19.9574C36.7999 19.5964 36.2776 19.3935 35.733 19.3935C35.1884 19.3935 34.6661 19.5964 34.281 19.9574C33.8959 20.3185 33.6796 20.8082 33.6796 21.3189ZM45.9487 13.2515L44.732 11.2587C44.6773 11.1709 44.5878 11.1069 44.483 11.0807C44.3781 11.0546 44.2665 11.0684 44.1725 11.1191L41.5698 12.5439L37.5502 2.13718C37.338 1.51622 36.9208 0.974558 36.3589 0.590411C35.7969 0.206265 35.1193 -0.000489384 34.4239 8.69853e-07H12.1803C10.399 8.69853e-07 8.81788 1.07822 8.2686 2.67148L4.43899 12.5487L1.83115 11.1239C1.73713 11.0732 1.62552 11.0594 1.52068 11.0855C1.41584 11.1117 1.32629 11.1757 1.2716 11.2635L0.0549537 13.2515C-0.0579839 13.4344 0.00875208 13.6655 0.203826 13.7714L3.30448 15.4657L2.56012 17.3911C2.49851 17.5451 2.46771 17.7088 2.46771 17.8724V34.633C2.46771 35.3887 3.07347 36 3.81783 36H7.28809C7.91952 36 8.46881 35.5523 8.60228 34.9266L8.99756 33.1119H37.0061L37.4014 34.9266C37.54 35.5523 38.0841 36 38.7155 36H42.1858C42.9302 36 43.5359 35.3887 43.5359 34.633V17.8724C43.5359 17.7088 43.5051 17.5451 43.4435 17.3911L42.6992 15.4657L45.7947 13.7714C45.8879 13.7209 45.9562 13.6382 45.985 13.541C46.0138 13.4437 46.0008 13.3398 45.9487 13.2515ZM39.8398 18.2383V29.6462H6.16385V18.2383L6.96468 16.1685H39.039L39.8398 18.2383ZM11.744 3.85078L11.7697 3.78821L11.7902 3.72563C11.8467 3.56679 12.0007 3.46089 12.1803 3.46089H34.1313L38.002 13.4729H8.01192L11.744 3.85078ZM8.21726 21.3189C8.21726 21.8295 8.4336 22.3193 8.81869 22.6804C9.20378 23.0414 9.72607 23.2443 10.2707 23.2443C10.8153 23.2443 11.3376 23.0414 11.7227 22.6804C12.1077 22.3193 12.3241 21.8295 12.3241 21.3189C12.3241 20.8082 12.1077 20.3185 11.7227 19.9574C11.3376 19.5964 10.8153 19.3935 10.2707 19.3935C9.72607 19.3935 9.20378 19.5964 8.81869 19.9574C8.4336 20.3185 8.21726 20.8082 8.21726 21.3189Z" fill="#FFFBFB"/>
</svg>
