<svg width="17" height="17" viewBox="0 0 17 17" fill="none" xmlns="http://www.w3.org/2000/svg">
<path d="M7.65 12.75H9.35V7.65H7.65V12.75ZM8.5 5.95C8.74083 5.95 8.94285 5.8684 9.10605 5.7052C9.26925 5.542 9.35057 5.34027 9.35 5.1C9.35 4.85917 9.2684 4.65715 9.1052 4.49395C8.942 4.33075 8.74027 4.24943 8.5 4.25C8.25917 4.25 8.05715 4.3316 7.89395 4.4948C7.73075 4.658 7.64943 4.85973 7.65 5.1C7.65 5.34083 7.7316 5.54285 7.8948 5.70605C8.058 5.86925 8.25973 5.95057 8.5 5.95ZM8.5 17C7.32417 17 6.21917 16.7767 5.185 16.3302C4.15083 15.8837 3.25125 15.2782 2.48625 14.5137C1.72125 13.7487 1.11577 12.8492 0.6698 11.815C0.223833 10.7808 0.000566667 9.67583 0 8.5C0 7.32417 0.223267 6.21917 0.6698 5.185C1.11633 4.15083 1.72182 3.25125 2.48625 2.48625C3.25125 1.72125 4.15083 1.11577 5.185 0.6698C6.21917 0.223833 7.32417 0.000566667 8.5 0C9.67583 0 10.7808 0.223267 11.815 0.6698C12.8492 1.11633 13.7487 1.72182 14.5137 2.48625C15.2787 3.25125 15.8845 4.15083 16.331 5.185C16.7776 6.21917 17.0006 7.32417 17 8.5C17 9.67583 16.7767 10.7808 16.3302 11.815C15.8837 12.8492 15.2782 13.7487 14.5137 14.5137C13.7487 15.2787 12.8492 15.8845 11.815 16.331C10.7808 16.7776 9.67583 17.0006 8.5 17ZM8.5 15.3C10.3983 15.3 12.0062 14.6412 13.3237 13.3237C14.6412 12.0062 15.3 10.3983 15.3 8.5C15.3 6.60167 14.6412 4.99375 13.3237 3.67625C12.0062 2.35875 10.3983 1.7 8.5 1.7C6.60167 1.7 4.99375 2.35875 3.67625 3.67625C2.35875 4.99375 1.7 6.60167 1.7 8.5C1.7 10.3983 2.35875 12.0062 3.67625 13.3237C4.99375 14.6412 6.60167 15.3 8.5 15.3Z" fill="#979797"/>
</svg>
