<svg width="23" height="36" viewBox="0 0 23 36" fill="none" xmlns="http://www.w3.org/2000/svg">
<path d="M0.738512 0V0.717209C0.738512 8.54356 3.66768 15.2754 8.13422 17.766V18.2338C3.66761 20.7244 0.738435 27.4563 0.738435 35.2827V36H22.7504V35.2827C22.7504 27.4104 19.7717 20.6765 15.2636 18.2266V17.7732C19.7714 15.3232 22.7504 8.58916 22.7504 0.717132V0H0.738281H0.738512ZM2.1922 1.43434H21.2969C21.1068 8.83787 18.0159 14.9082 14.2394 16.7032L13.8292 16.8976V19.1046L14.2394 19.2989C18.0157 21.0938 21.1065 27.1624 21.2969 34.5654H2.1922C2.38073 27.2039 5.42589 21.1257 9.16815 19.2941L9.57117 19.0974V16.9024L9.16815 16.7058C5.42605 14.8742 2.38065 8.79588 2.1922 1.43434ZM18.5934 8.04567C14.1712 10.1805 9.0342 10.1828 4.96293 8.36002C6.08783 12.2677 8.32643 15.049 10.9602 15.5087C10.8373 15.671 10.7707 15.8689 10.7706 16.0724C10.7706 16.5914 11.1919 17.0128 11.711 17.0128C12.2301 17.0128 12.6513 16.5914 12.6513 16.0724C12.6513 15.8636 12.5817 15.6719 12.4666 15.5159C15.1861 15.0645 17.4938 12.1328 18.5934 8.04567ZM11.711 18.1667C11.1919 18.1667 10.7706 18.588 10.7706 19.1071C10.7706 19.6262 11.1919 20.0475 11.711 20.0475C12.2301 20.0475 12.6513 19.6262 12.6513 19.1071C12.6513 18.588 12.2301 18.1667 11.711 18.1667ZM11.711 21.182C11.1919 21.182 10.7706 21.6035 10.7706 22.1224C10.7706 22.6416 11.1919 23.0628 11.711 23.0628C12.2301 23.0628 12.6513 22.6416 12.6513 22.1224C12.6513 21.6035 12.2301 21.182 11.711 21.182ZM11.711 24.2168C11.1919 24.2168 10.7706 24.638 10.7706 25.1571C10.7706 25.676 11.1919 26.0975 11.711 26.0975C12.2301 26.0975 12.6513 25.676 12.6513 25.1571C12.6513 24.638 12.2301 24.2168 11.711 24.2168ZM11.7206 27.2801C9.93887 27.3016 8.17482 29.2583 5.90083 33.0878H17.6458C15.3027 29.1726 13.5023 27.2586 11.7206 27.2801Z" fill="white"/>
</svg>
